<?xml version="1.0" encoding="UTF-8" standalone="no"?>
<!-- Created with Inkscape (http://www.inkscape.org/) -->

<svg
   width="210mm"
   height="297mm"
   viewBox="0 0 210 297"
   version="1.1"
   id="svg5"
   sodipodi:docname="Logos Souza Lima v2.svg"
   inkscape:version="1.2.2 (732a01da63, 2022-12-09)"
   xmlns:inkscape="http://www.inkscape.org/namespaces/inkscape"
   xmlns:sodipodi="http://sodipodi.sourceforge.net/DTD/sodipodi-0.dtd"
   xmlns="http://www.w3.org/2000/svg"
   xmlns:svg="http://www.w3.org/2000/svg">
  <sodipodi:namedview
     id="namedview7"
     pagecolor="#ffffff"
     bordercolor="#000000"
     borderopacity="0.25"
     inkscape:showpageshadow="2"
     inkscape:pageopacity="0.0"
     inkscape:pagecheckerboard="0"
     inkscape:deskcolor="#d1d1d1"
     inkscape:document-units="mm"
     showgrid="false"
     showguides="true"
     inkscape:zoom="2.0888418"
     inkscape:cx="167.55697"
     inkscape:cy="367.18912"
     inkscape:window-width="1920"
     inkscape:window-height="1009"
     inkscape:window-x="1912"
     inkscape:window-y="-8"
     inkscape:window-maximized="1"
     inkscape:current-layer="layer1">
    <sodipodi:guide
       position="84.485611,143.52933"
       orientation="0,-1"
       id="guide3026"
       inkscape:locked="false" />
    <sodipodi:guide
       position="56.619293,115.49979"
       orientation="0,-1"
       id="guide3028"
       inkscape:locked="false" />
    <sodipodi:guide
       position="60.078795,43.170431"
       orientation="0,-1"
       id="guide3165"
       inkscape:locked="false" />
    <sodipodi:guide
       position="34.959564,187.18137"
       orientation="1,0"
       id="guide4724"
       inkscape:locked="false" />
    <sodipodi:guide
       position="70.983892,216.81706"
       orientation="1,0"
       id="guide6586"
       inkscape:locked="false" />
  </sodipodi:namedview>
  <defs
     id="defs2" />
  <g
     inkscape:label="Camada 1"
     inkscape:groupmode="layer"
     id="layer1">
    <g
       aria-label="S"
       id="text4989"
       style="font-size:39.6714px;font-family:'Bauhaus 93';-inkscape-font-specification:'Bauhaus 93, Normal';text-align:center;text-anchor:middle;fill:#ff6600;stroke-width:5.34062"
       transform="matrix(1.5605467,0,0,1.332058,-39.695767,-29.194986)">
      <path
         d="m 73.205381,80.650336 0.03958,7.068163 c -0.56821,-0.193708 -1.959524,0.131599 -2.26107,0.13528 0,0 -0.315854,-0.01255 -0.72102,0.40693 -0.42509,0.440105 -0.544237,1.261454 -0.544237,1.881319 0,0.529469 0.23245,1.20099 0.697349,2.014563 l 0.600494,1.046023 c 1.084765,1.885425 1.627148,3.70628 1.627148,5.462566 0,2.56986 -0.916885,4.74585 -2.750654,6.52796 -1.820855,1.78211 -4.048497,2.67317 -6.682926,2.67317 -1.265559,0 -2.518204,-0.29056 -3.757935,-0.87169 v -7.651462 c 0.749004,0.477815 1.414068,0.716722 1.995192,0.716722 0.684435,0 1.252646,-0.193709 1.704631,-0.581127 0.464899,-0.400329 0.697349,-0.897513 0.697349,-1.491551 0,-0.387416 -0.368045,-1.233274 -1.104136,-2.537575 -1.175162,-2.066219 -1.762743,-4.132437 -1.762743,-6.198656 0,-2.492376 0.8846,-4.636078 2.6538,-6.431105 1.782113,-1.807941 3.92418,-2.282309 6.372993,-2.577563 1.183524,-0.142697 3.056584,0.03213 3.232885,-0.05839 z"
         style="fill:#ff6600;stroke-width:5.34061"
         id="path4995"
         sodipodi:nodetypes="ccsssccscsccscscscscc" />
    </g>
    <g
       aria-label="S"
       id="text402-0"
       style="font-size:39.6714px;font-family:Broadway;-inkscape-font-specification:'Broadway, Normal';text-align:center;text-anchor:middle;fill:#ff0000;stroke-width:7.70001"
       transform="rotate(90,20.099297,-38.116198)" />
    <g
       aria-label="j"
       id="text4488-9"
       style="font-size:39.6714px;font-family:'Century Schoolbook';-inkscape-font-specification:'Century Schoolbook, Normal';text-align:center;text-anchor:middle;fill:#ff0000;stroke-width:7.65666"
       transform="matrix(1.011356,0,0,1,-4.6292849,-132.03794)">
      <path
         d="m 112.53521,150.04547 c 0.63278,0 1.15579,0.20662 1.56903,0.61986 0.41325,0.40033 0.61987,0.91043 0.61987,1.5303 0,0.63278 -0.20662,1.15579 -0.61987,1.56903 -0.41324,0.41324 -0.92979,0.61987 -1.54966,0.61987 -0.59404,0 -1.1106,-0.21308 -1.54967,-0.63924 -0.43907,-0.43908 -0.6586,-0.94917 -0.6586,-1.53029 0,-0.58113 0.21953,-1.08477 0.6586,-1.51093 0.43907,-0.43907 0.94917,-0.6586 1.5303,-0.6586 z m 1.93708,5.30415 v 17.35624 c 0,2.53112 -0.69089,4.62962 -2.07268,6.29551 -1.38179,1.66589 -2.91854,2.49883 -4.61025,2.49883 -0.85231,0 -1.51092,-0.21308 -1.97582,-0.63923 -0.4649,-0.41325 -0.69735,-0.98146 -0.69735,-1.70463 0,-0.63278 0.18725,-1.14288 0.56175,-1.5303 0.37451,-0.38741 0.84586,-0.58112 1.41407,-0.58112 0.90397,0 1.49155,0.58758 1.76274,1.76274 0.0904,0.38742 0.1808,0.62633 0.2712,0.71672 0.0904,0.10331 0.23244,0.15497 0.42615,0.15497 0.23245,0 0.45845,-0.10977 0.67798,-0.3293 0.30993,-0.33576 0.5553,-0.89751 0.73609,-1.68526 0.23245,-1.08477 0.34868,-2.15662 0.34868,-3.21556 v -15.28356 c 0,-0.71026 -0.21954,-1.25264 -0.65861,-1.62714 -0.43907,-0.37451 -1.09122,-0.56176 -1.95645,-0.56176 h -1.64652 v -1.35595 z"
         style="stroke-width:7.65665"
         id="path4490-9"
         sodipodi:nodetypes="scssscscscssscsssccsccssssccc" />
    </g>
    <g
       aria-label="j"
       id="text4488-1-2"
       style="font-size:39.6714px;font-family:'Century Schoolbook';-inkscape-font-specification:'Century Schoolbook, Normal';text-align:center;text-anchor:middle;fill:#0000ff;stroke-width:7.65666"
       transform="matrix(-0.505678,0.87585999,-0.8660254,-0.5,270.41761,21.850009)">
      <path
         d="m 112.53521,150.04547 c 0.63278,0 1.15579,0.20662 1.56903,0.61986 0.41325,0.40033 0.61987,0.91043 0.61987,1.5303 0,0.63278 -0.20662,1.15579 -0.61987,1.56903 -0.41324,0.41324 -0.92979,0.61987 -1.54966,0.61987 -0.59404,0 -1.1106,-0.21308 -1.54967,-0.63924 -0.43907,-0.43908 -0.6586,-0.94917 -0.6586,-1.53029 0,-0.58113 0.21953,-1.08477 0.6586,-1.51093 0.43907,-0.43907 0.94917,-0.6586 1.5303,-0.6586 z m 1.93708,5.30415 v 17.35624 c 0,2.53112 -0.69089,4.62962 -2.07268,6.29551 -1.38179,1.66589 -2.91854,2.49883 -4.61025,2.49883 -0.85231,0 -1.51092,-0.21308 -1.97582,-0.63923 -0.4649,-0.41325 -0.69735,-0.98146 -0.69735,-1.70463 0,-0.63278 0.18725,-1.14288 0.56175,-1.5303 0.37451,-0.38741 0.84586,-0.58112 1.41407,-0.58112 0.90397,0 1.49155,0.58758 1.76274,1.76274 0.0904,0.38742 0.1808,0.62633 0.2712,0.71672 0.0904,0.10331 0.23244,0.15497 0.42615,0.15497 0.23245,0 0.45845,-0.10977 0.67798,-0.3293 0.30993,-0.33576 0.5553,-0.89751 0.73609,-1.68526 0.23245,-1.08477 0.34868,-2.15662 0.34868,-3.21556 v -15.28356 c 0,-0.71026 -0.21954,-1.25264 -0.65861,-1.62714 -0.43907,-0.37451 -1.09122,-0.56176 -1.95645,-0.56176 h -1.64652 v -1.35595 z"
         style="fill:#0000ff;stroke-width:7.65665"
         id="path4490-6-3"
         sodipodi:nodetypes="scssscscscssscsssccsccssssccc" />
    </g>
    <g
       aria-label="j"
       id="g4685"
       style="font-size:39.6714px;font-family:'Century Schoolbook';-inkscape-font-specification:'Century Schoolbook, Normal';text-align:center;text-anchor:middle;fill:#008080;stroke-width:7.65666"
       transform="matrix(0.505678,0.87585999,0.8660254,-0.5,-134.94207,21.6947)">
      <path
         d="m 112.53521,150.04547 c 0.63278,0 1.15579,0.20662 1.56903,0.61986 0.41325,0.40033 0.61987,0.91043 0.61987,1.5303 0,0.63278 -0.20662,1.15579 -0.61987,1.56903 -0.41324,0.41324 -0.92979,0.61987 -1.54966,0.61987 -0.59404,0 -1.1106,-0.21308 -1.54967,-0.63924 -0.43907,-0.43908 -0.6586,-0.94917 -0.6586,-1.53029 0,-0.58113 0.21953,-1.08477 0.6586,-1.51093 0.43907,-0.43907 0.94917,-0.6586 1.5303,-0.6586 z m 1.93708,5.30415 v 17.35624 c 0,2.53112 -0.69089,4.62962 -2.07268,6.29551 -1.38179,1.66589 -2.91854,2.49883 -4.61025,2.49883 -0.85231,0 -1.51092,-0.21308 -1.97582,-0.63923 -0.4649,-0.41325 -0.69735,-0.98146 -0.69735,-1.70463 0,-0.63278 0.18725,-1.14288 0.56175,-1.5303 0.37451,-0.38741 0.84586,-0.58112 1.41407,-0.58112 0.90397,0 1.49155,0.58758 1.76274,1.76274 0.0904,0.38742 0.1808,0.62633 0.2712,0.71672 0.0904,0.10331 0.23244,0.15497 0.42615,0.15497 0.23245,0 0.45845,-0.10977 0.67798,-0.3293 0.30993,-0.33576 0.5553,-0.89751 0.73609,-1.68526 0.23245,-1.08477 0.34868,-2.15662 0.34868,-3.21556 v -15.28356 c 0,-0.71026 -0.21954,-1.25264 -0.65861,-1.62714 -0.43907,-0.37451 -1.09122,-0.56176 -1.95645,-0.56176 h -1.64652 v -1.35595 z"
         style="fill:#008080;stroke-width:7.65665"
         id="path4683"
         sodipodi:nodetypes="scssscscscssscsssccsccssssccc" />
    </g>
    <g
       aria-label="S"
       id="text4948"
       style="font-size:39.6714px;font-family:'Bradley Hand ITC';-inkscape-font-specification:'Bradley Hand ITC, Normal';text-align:center;text-anchor:middle;fill:#008080;stroke-width:7.70001" />
    <g
       aria-label="l"
       transform="scale(1.2152834,0.82285333)"
       id="text4952"
       style="font-size:32.6437px;font-family:'Bradley Hand ITC';-inkscape-font-specification:'Bradley Hand ITC, Normal';text-align:center;text-anchor:middle;fill:#008080;stroke-width:7.7" />
    <g
       aria-label="L"
       transform="matrix(-1.5605467,0,0,-1.332058,-43.162505,-30.144824)"
       id="text4993"
       style="font-size:39.6714px;font-family:'Bauhaus 93';-inkscape-font-specification:'Bauhaus 93, Normal';text-align:center;text-anchor:middle;fill:#000080;stroke-width:5.34062">
      <path
         d="m -84.401706,-107.33715 h 7.864545 v 15.709723 c 0,1.226817 0.193708,2.046848 0.581124,2.460092 0.40033,0.40033 1.181619,0.600495 2.343867,0.600495 h 0.406787 v 7.670836 h -2.092047 c -2.822095,0 -5.100977,-0.832944 -6.702296,-2.498833 -1.60132,-1.678803 -2.40198,-4.003299 -2.40198,-6.973488 z"
         style="fill:#000080;stroke-width:5.34061"
         id="path4998"
         sodipodi:nodetypes="ccscsccscsc" />
    </g>
    <rect
       style="fill:none;stroke:#000000;stroke-width:0.999999;stroke-dasharray:none"
       id="rect5080"
       width="45.979427"
       height="45.979427"
       x="47.984486"
       y="72.696373" />
  </g>
</svg>
